<svg width="23" height="22" viewBox="0 0 23 22" fill="none" xmlns="http://www.w3.org/2000/svg">
<path d="M17.1849 0H5.73608C2.57313 0 0 2.57314 0 5.73608V16.2101C0 19.3731 2.57313 21.9462 5.73608 21.9462H17.1849C20.3479 21.9462 22.921 19.3731 22.921 16.2101V5.73608C22.921 2.57314 20.3479 0 17.1849 0ZM2.02351 5.73608C2.02351 3.68924 3.68924 2.02351 5.73608 2.02351H17.1849C19.2318 2.02351 20.8975 3.68924 20.8975 5.73608V16.2101C20.8975 18.2569 19.2318 19.9227 17.1849 19.9227H5.73608C3.68924 19.9227 2.02351 18.2569 2.02351 16.2101V5.73608Z" fill="white"/>
<path d="M11.4605 16.3074C14.4018 16.3074 16.796 13.9145 16.796 10.9719C16.796 8.0293 14.403 5.63635 11.4605 5.63635C8.51789 5.63635 6.12494 8.0293 6.12494 10.9719C6.12494 13.9145 8.51789 16.3074 11.4605 16.3074ZM11.4605 7.66116C13.2869 7.66116 14.7725 9.14671 14.7725 10.9732C14.7725 12.7997 13.2869 14.2852 11.4605 14.2852C9.634 14.2852 8.14845 12.7997 8.14845 10.9732C8.14845 9.14671 9.634 7.66116 11.4605 7.66116Z" fill="white"/>
<path d="M17.2899 6.49919C18.0819 6.49919 18.7275 5.85474 18.7275 5.06118C18.7275 4.26762 18.0832 3.62317 17.2899 3.62317C16.4965 3.62317 15.8523 4.26762 15.8523 5.06118C15.8523 5.85474 16.4965 6.49919 17.2899 6.49919Z" fill="white"/>
</svg>
