<svg width="24" height="21" viewBox="0 0 24 21" fill="none" xmlns="http://www.w3.org/2000/svg">
<path d="M22.9921 9.92569C22.6849 8.53218 21.412 7.62867 20.1494 7.90737C19.719 8.002 19.3483 8.22366 19.0553 8.52699C17.3559 7.29293 15.0355 6.47756 12.4442 6.3233L13.6848 1.15888L17.3649 2.03906C17.4259 3.04498 18.2594 3.8422 19.2809 3.8422C20.3023 3.8422 21.202 2.98147 21.202 1.9211C21.202 0.860737 20.3412 0 19.2809 0C18.5122 0 17.8498 0.452405 17.5438 1.10574L13.5513 0.15037C13.2376 0.0751853 12.9226 0.268331 12.8461 0.582033L11.4733 6.29737C8.58258 6.31293 5.97444 7.14904 4.1026 8.4881C4.01057 8.40255 3.91206 8.32347 3.80446 8.25348C2.71429 7.55737 1.20799 7.96829 0.440584 9.16995C-0.326819 10.3716 -0.0662652 11.9116 1.02391 12.6077C1.08873 12.6492 1.15484 12.6855 1.22225 12.7192C1.17818 12.9875 1.15484 13.261 1.15484 13.5372C1.15484 17.5362 5.80983 20.7782 11.5524 20.7782C17.295 20.7782 21.9499 17.5362 21.9499 13.5372C21.9499 13.2572 21.9253 12.981 21.8799 12.7101C22.7653 12.1955 23.2475 11.0742 22.9947 9.92569H22.9921ZM6.22075 11.8598C6.22075 10.9485 6.95963 10.2096 7.87092 10.2096C8.78222 10.2096 9.52112 10.9485 9.52112 11.8598C9.52112 12.771 8.78222 13.5099 7.87092 13.5099C6.95963 13.5099 6.22075 12.771 6.22075 11.8598ZM15.3855 17.0695C14.8787 17.5297 13.4787 18.6031 11.4292 18.6225C11.4111 18.6225 11.3916 18.6225 11.3735 18.6225C9.29683 18.6225 7.8787 17.5388 7.36148 17.0695C7.19555 16.9192 7.18389 16.6625 7.33426 16.4979C7.48463 16.332 7.7413 16.3203 7.90593 16.4707C8.35574 16.8803 9.59888 17.8305 11.4215 17.8136C13.1935 17.7968 14.4029 16.8699 14.8411 16.472C15.007 16.3216 15.2624 16.3332 15.4127 16.4992C15.5631 16.6651 15.5515 16.9205 15.3855 17.0708V17.0695ZM15.1859 13.5099C14.2746 13.5099 13.5357 12.771 13.5357 11.8598C13.5357 10.9485 14.2746 10.2096 15.1859 10.2096C16.0972 10.2096 16.8361 10.9485 16.8361 11.8598C16.8361 12.771 16.0972 13.5099 15.1859 13.5099Z" fill="white"/>
</svg>
