<svg width="23" height="19" viewBox="0 0 23 19" fill="none" xmlns="http://www.w3.org/2000/svg">
<path d="M0.593193 8.51759C0.645045 8.49166 0.696921 8.46703 0.747476 8.4437C1.62636 8.03666 2.51691 7.65555 3.40617 7.27445C3.45413 7.27445 3.53448 7.21871 3.57985 7.20056C3.64855 7.17074 3.71727 7.14222 3.78597 7.11241L4.18135 6.9426C4.44579 6.82982 4.70892 6.71704 4.97336 6.60426C5.50095 6.37871 6.02854 6.15316 6.55613 5.9263C7.61131 5.4752 8.66781 5.02279 9.72299 4.57168C10.7782 4.12057 11.8346 3.66817 12.8898 3.21706C13.945 2.76595 15.0015 2.31355 16.0566 1.86244C17.1118 1.41133 18.1683 0.958922 19.2235 0.507814C19.4581 0.406703 19.7122 0.256334 19.9637 0.21226C20.175 0.174667 20.3811 0.102076 20.5937 0.0618906C20.9968 -0.0145905 21.4414 -0.0457015 21.8277 0.12152C21.9612 0.179853 22.0844 0.261518 22.1868 0.363925C22.6768 0.848738 22.6081 1.64466 22.5044 2.32651C21.7824 7.07871 21.0603 11.8322 20.337 16.5844C20.2385 17.2364 20.1037 17.952 19.589 18.3642C19.1535 18.7129 18.5338 18.7518 17.9959 18.604C17.4579 18.4549 16.9835 18.1425 16.5181 17.8353C14.588 16.5572 12.6565 15.279 10.7263 14.0009C10.2674 13.6976 9.7567 13.3009 9.76188 12.75C9.76448 12.4181 9.96279 12.1226 10.165 11.8594C11.8424 9.67129 14.2626 8.16759 16.0631 6.08056C16.3172 5.78631 16.5168 5.25483 16.1681 5.08501C15.9607 4.9839 15.7222 5.12131 15.5329 5.25223C13.1529 6.905 10.7743 8.55907 8.39429 10.2118C7.61781 10.7511 6.80374 11.3059 5.86782 11.4381C5.03042 11.5574 4.18784 11.3241 3.37765 11.0855C2.6984 10.8859 2.02042 10.6811 1.34505 10.4698C0.985976 10.3583 0.615234 10.2378 0.337828 9.98499C0.0604219 9.73221 -0.0990003 9.30703 0.0682211 8.96999C0.173221 8.7587 0.376742 8.62518 0.59063 8.51629L0.593193 8.51759Z" fill="#FEFFFC"/>
</svg>
