<svg width="25" height="24" viewBox="0 0 25 24" fill="none" xmlns="http://www.w3.org/2000/svg">
<path d="M15.659 17.0671C10.9237 17.0671 7.07112 13.2132 7.06982 8.47786C7.07112 7.2775 8.04853 6.30139 9.2463 6.30139C9.36945 6.30139 9.49129 6.31176 9.60795 6.3325C9.86462 6.37528 10.1083 6.46213 10.3326 6.59306C10.365 6.6125 10.387 6.64361 10.3922 6.67991L10.8926 9.83378C10.8991 9.87137 10.8874 9.90767 10.8628 9.93489C10.5867 10.2408 10.2341 10.4612 9.84129 10.5714L9.65204 10.6245L9.72333 10.8073C10.3689 12.451 11.6833 13.7641 13.3283 14.4123L13.5111 14.4849L13.5642 14.2956C13.6744 13.9028 13.8948 13.5502 14.2007 13.2741C14.2228 13.2534 14.2526 13.243 14.2824 13.243C14.2889 13.243 14.2953 13.243 14.3031 13.2443L17.457 13.7447C17.4946 13.7512 17.5257 13.7719 17.5451 13.8043C17.6748 14.0286 17.7616 14.2736 17.8057 14.5302C17.8264 14.6443 17.8355 14.7649 17.8355 14.8906C17.8355 16.0897 16.8594 17.0658 15.659 17.0671Z" fill="#FDFDFD"/>
<path d="M24.0566 10.6166C23.8012 7.73107 22.479 5.05423 20.3336 3.07998C18.1753 1.09407 15.3753 0 12.447 0C6.01997 0 0.790749 5.22923 0.790749 11.6562C0.790749 13.8133 1.38573 15.9145 2.51221 17.7449L0 23.306L8.04348 22.4491C9.44218 23.0221 10.9225 23.3125 12.4457 23.3125C12.8462 23.3125 13.2572 23.2917 13.6694 23.249C14.0323 23.2101 14.3992 23.153 14.7596 23.0804C20.1418 21.9929 24.0708 17.216 24.1019 11.7185V11.6562C24.1019 11.3062 24.0864 10.9562 24.0553 10.6166H24.0566ZM8.3533 20.0082L3.90314 20.4827L5.23184 17.5388L4.96609 17.1823C4.94665 17.1564 4.92721 17.1305 4.90517 17.1007C3.75147 15.5075 3.1422 13.6253 3.1422 11.6575C3.1422 6.52682 7.31626 2.35277 12.447 2.35277C17.2536 2.35277 21.3279 6.10293 21.7206 10.8901C21.7414 11.1468 21.753 11.4048 21.753 11.6588C21.753 11.7314 21.7517 11.8027 21.7505 11.8792C21.6519 16.1712 18.6536 19.8164 14.4588 20.7445C14.1386 20.8158 13.8107 20.8703 13.484 20.9053C13.1444 20.9442 12.7957 20.9636 12.4496 20.9636C11.2168 20.9636 10.019 20.7251 8.88737 20.2532C8.76163 20.2027 8.63847 20.1482 8.5231 20.0925L8.3546 20.0108L8.3533 20.0082Z" fill="#FDFDFD"/>
</svg>
